
@startuml
left to right direction
package "类之间的关系" {
    top to bottom direction
    rectangle 基础 {
        '--为实线 ..为虚线
        Class01 <|-- Class02 :泛化关系
        Class03 *-- Class04 :组合关系
        Class05 o-- Class06 :聚合关系
        Class07 <--* Class08
        Class09 --> Class10
    }
}

package "Classic Collections" <<Node>> #DDDDDD {
  Object <|-- ArrayList
}

package net.sourceforge.plantuml {
  Object <|-- Demo1
  Demo1 *- Demo2
}


package "元素声明" {
    abstract        abstract
    abstract class  "abstract class"
    annotation      annotation
    circle          circle
    ()              circle_short_form
    class           class
    class           class_stereo  <<stereotype>>
    diamond         diamond
    <>              diamond_short_form
    entity          entity
    enum            enum
    exception       exception
    interface       interface
    metaclass       metaclass
    protocol        protocol
    stereotype      stereotype
    struct          struct
}

@enduml
